<svg width="900" height="900" viewBox="0 0 900 900" fill="none" xmlns="http://www.w3.org/2000/svg">
  <rect width="900" height="900" fill="#F7F1EA"/>
  <rect y="640" width="900" height="260" fill="#E7D7C8"/>
  <ellipse cx="452" cy="676" rx="190" ry="32" fill="#D3B49D" opacity="0.45"/>
  <rect x="310" y="528" width="284" height="122" rx="18" fill="#EFE4D9"/>
  <path d="M389 195C389 162.968 414.968 137 447 137H453C485.032 137 511 162.968 511 195V281C511 300.882 526.148 317 546 317C577.48 317 597.132 351.173 580.883 378.137L514.117 489.863C503.279 508 483.674 519 462.525 519H437.475C416.326 519 396.721 508 385.883 489.863L319.117 378.137C302.868 351.173 322.52 317 354 317C373.852 317 389 300.882 389 281V195Z" fill="#C59267"/>
  <path d="M420 175C420 158.431 433.431 145 450 145C466.569 145 480 158.431 480 175V283C480 319.451 507.451 349 543.5 349C552.789 349 558.607 359.023 553.812 367.057L495.354 465.024C488.165 477.078 475.139 484.4 461.103 484.4H438.897C424.861 484.4 411.835 477.078 404.646 465.024L346.188 367.057C341.393 359.023 347.211 349 356.5 349C392.549 349 420 319.451 420 283V175Z" fill="#D8A77F"/>
  <path d="M451 198C414.4 198 387.5 241.5 386 300C384.5 358.5 409.5 463 451 463C492.5 463 517.5 358.5 516 300C514.5 241.5 487.6 198 451 198Z" fill="#E9C6A6" opacity="0.45"/>
  <ellipse cx="450" cy="139" rx="43" ry="12" fill="#E7BE9A"/>
  <path d="M447 118C447 100.879 460.879 87 478 87C483.799 87 488.5 91.701 488.5 97.5C488.5 103.299 483.799 108 478 108C472.477 108 468 112.477 468 118V137H447V118Z" fill="#A97653"/>
  <path d="M442 202C458 232 463 279 463 321C463 387 452 430 441 464" stroke="#B17B57" stroke-width="8" stroke-linecap="round" opacity="0.45"/>
  <path d="M477 238C489 269 494 315 492 352" stroke="#B17B57" stroke-width="8" stroke-linecap="round" opacity="0.35"/>
  <path d="M364 640H537" stroke="#DBC5B4" stroke-width="6" stroke-linecap="round"/>
</svg>
